<svg xmlns="http://www.w3.org/2000/svg" width="40" height="40" viewBox="0 0 40 40">
    <defs>
        <clipPath id="clip-path">
            <path id="사각형_1361" d="M0 0H40V40H0z" class="cls-1" transform="translate(826 906)"/>
        </clipPath>
        <style>
            .cls-1{fill:#ff3358}
        </style>
    </defs>
    <g id="마스크_그룹_126" clip-path="url(#clip-path)" transform="translate(-826 -906)">
        <g id="공지사항" transform="translate(822.343 906)">
            <g id="그룹_1960">
                <g id="그룹_1959">
                    <path id="패스_561" d="M34.4 4.806h-3.32V3.321c0-.48-.524-.7-1-.7H27.5A3.906 3.906 0 0 0 23.614 0a3.973 3.973 0 0 0-3.886 2.62h-2.533c-.48 0-.961.218-.961.7v1.486h-3.318a3.712 3.712 0 0 0-3.668 3.537v28.339A3.513 3.513 0 0 0 12.916 40H34.4a3.513 3.513 0 0 0 3.668-3.319V8.343A3.712 3.712 0 0 0 34.4 4.806zm-16.419-.437h2.4a.961.961 0 0 0 .83-.786 2.533 2.533 0 0 1 2.4-1.965 2.489 2.489 0 0 1 2.358 1.965.961.961 0 0 0 .873.786h2.489v3.494h-11.35zM36.32 36.682a1.771 1.771 0 0 1-1.92 1.572H12.916a1.771 1.771 0 0 1-1.921-1.572V8.343a1.965 1.965 0 0 1 1.921-1.79h3.319V8.78a.917.917 0 0 0 .961.83h12.88a.961.961 0 0 0 1-.83V6.553H34.4a1.965 1.965 0 0 1 1.921 1.79v28.339z" class="cls-1"/>
                    <path id="패스_562" d="M32.506 21.4h-17.7a.873.873 0 0 0 0 1.747h17.7a.873.873 0 1 0 0-1.747z" class="cls-1"/>
                    <path id="패스_563" d="M32.506 14.412h-17.7a.873.873 0 0 0 0 1.747h17.7a.873.873 0 0 0 0-1.747z" class="cls-1"/>
                    <path id="패스_564" d="M24.206 28.385h-9.4a.873.873 0 0 0 0 1.747h9.4a.873.873 0 1 0 0-1.747z" class="cls-1"/>
                </g>
            </g>
        </g>
    </g>
</svg>
