<svg xmlns="http://www.w3.org/2000/svg" width="24" height="24.151" viewBox="0 0 24 24.151">
    <defs>
        <style>
            .cls-2{fill:#939393;stroke:#939393;stroke-width:.15px}
        </style>
    </defs>
    <g id="그룹_1953" transform="translate(-72 -1164.924)">
        <path id="사각형_618" fill="rgba(124,208,223,0)" d="M0 0H24V24H0z" transform="translate(72 1165)"/>
        <g id="그룹_1174" transform="translate(74.999 1165)">
            <g id="그룹_1173">
                <g id="그룹_1172">
                    <path id="패스_226" d="M3358.507-405.106h-1.991V-406c0-.288-.314-.419-.6-.419h-1.546a2.344 2.344 0 0 0-2.332-1.572 2.384 2.384 0 0 0-2.332 1.572h-1.52c-.288 0-.576.131-.576.419v.891h-1.991a2.227 2.227 0 0 0-2.2 2.122v17a2.108 2.108 0 0 0 2.2 1.991h12.89a2.108 2.108 0 0 0 2.2-1.991v-17a2.227 2.227 0 0 0-2.202-2.119zm-9.851-.262h1.441a.576.576 0 0 0 .5-.472 1.52 1.52 0 0 1 1.441-1.179 1.493 1.493 0 0 1 1.415 1.179.576.576 0 0 0 .524.472h1.493v2.1h-6.812zm11 19.387a1.063 1.063 0 0 1-1.153.943h-12.89a1.063 1.063 0 0 1-1.153-.943v-17a1.179 1.179 0 0 1 1.153-1.074h1.991v1.336a.55.55 0 0 0 .576.5h7.729a.576.576 0 0 0 .6-.5v-1.336h1.991a1.179 1.179 0 0 1 1.153 1.074v17z" class="cls-2" transform="translate(-3343.416 407.989)"/>
                    <path id="패스_227" d="M3395.117-222.826H3384.5a.524.524 0 0 0-.524.524.524.524 0 0 0 .524.524h10.619a.524.524 0 0 0 .524-.524.524.524 0 0 0-.526-.524z" class="cls-2" transform="translate(-3381.162 235.665)"/>
                    <path id="패스_228" d="M3395.117-283.28H3384.5a.524.524 0 0 0-.524.524.524.524 0 0 0 .524.524h10.619a.524.524 0 0 0 .524-.524.524.524 0 0 0-.526-.524z" class="cls-2" transform="translate(-3381.162 291.927)"/>
                    <path id="패스_229" d="M3390.137-162.372h-5.637a.524.524 0 0 0-.524.524.524.524 0 0 0 .524.524h5.639a.524.524 0 0 0 .524-.524.524.524 0 0 0-.526-.524z" class="cls-2" transform="translate(-3381.162 179.403)"/>
                </g>
            </g>
        </g>
    </g>
</svg>
