<svg xmlns="http://www.w3.org/2000/svg" width="40" height="40" viewBox="0 0 40 40">
    <defs>
        <clipPath id="clip-path">
            <path id="패스_558" d="M0 0h40v40H0z" class="cls-1" transform="translate(826 755)"/>
        </clipPath>
        <style>
            .cls-1{fill:#ff3358}
        </style>
    </defs>
    <g id="마스크_그룹_124" clip-path="url(#clip-path)" transform="translate(-826 -755)">
        <g id="faq" transform="translate(818.927 754.695)">
            <path id="패스_557" d="M27.073.3A17.561 17.561 0 0 0 9.532 17.846v9.676a3.268 3.268 0 0 0 3.268 3.265h1.609l.072.2A3.264 3.264 0 0 0 20.82 29.9v-9.675a3.264 3.264 0 0 0-6.342-1.088l-.072.2H12.8a3.246 3.246 0 0 0-1.088.187l-.406.144v-1.822a15.771 15.771 0 1 1 31.542 0v1.826l-.406-.144a3.247 3.247 0 0 0-1.088-.187H39.74l-.072-.2a3.264 3.264 0 0 0-6.342 1.088V29.9a3.264 3.264 0 0 0 4.212 3.124l.546-.166-.166.546a3.9 3.9 0 0 1-3.707 2.749h-3.989l-.072-.2a3.264 3.264 0 1 0 0 2.176l.072-.2h3.989a5.65 5.65 0 0 0 5.644-5.644v-1.498h1.495a3.268 3.268 0 0 0 3.265-3.265v-9.676A17.561 17.561 0 0 0 27.073.3zM16.061 20.225a1.494 1.494 0 0 1 2.989 0V29.9a1.494 1.494 0 1 1-2.989 0zm-3.261.885h1.49v7.906H12.8a1.5 1.5 0 0 1-1.5-1.494V22.6a1.5 1.5 0 0 1 1.5-1.49zm14.273 17.424a1.494 1.494 0 1 1 1.494-1.494 1.5 1.5 0 0 1-1.494 1.494zM38.085 29.9a1.494 1.494 0 0 1-2.989 0v-9.675a1.494 1.494 0 0 1 2.989 0zm4.759-2.379a1.5 1.5 0 0 1-1.494 1.494h-1.495V21.11h1.494a1.5 1.5 0 0 1 1.495 1.49z" class="cls-1"/>
        </g>
    </g>
</svg>
