<svg xmlns="http://www.w3.org/2000/svg" width="24" height="24.15" viewBox="0 0 24 24.15">
    <g>
        <path fill="rgba(124,208,223,0)" d="M0 0H24V24H0z" transform="translate(-72 -1064.693) translate(72 1064.768)"/>
        <g>
            <path fill="#939393" stroke="#939393" stroke-width="0.15px" d="M4217.344-298.125a10.543 10.543 0 0 0-10.532 10.531v5.78a2.006 2.006 0 0 0 2 2h.923l.03.085a2.008 2.008 0 0 0 1.889 1.336 2.006 2.006 0 0 0 2-2v-5.78a2.006 2.006 0 0 0-2-2 2.008 2.008 0 0 0-1.889 1.336l-.03.085h-.923a1.992 1.992 0 0 0-.667.115l-.171.061v-1.014a9.376 9.376 0 0 1 9.366-9.366 9.377 9.377 0 0 1 9.366 9.366v1.014l-.171-.061a1.987 1.987 0 0 0-.667-.115h-.923l-.031-.085a2.008 2.008 0 0 0-1.889-1.336 2.006 2.006 0 0 0-2 2v5.78a2.006 2.006 0 0 0 2 2 2 2 0 0 0 .582-.086l.23-.07-.07.23a2.276 2.276 0 0 1-2.162 1.6h-2.345l-.03-.085a2.008 2.008 0 0 0-1.889-1.336 2.006 2.006 0 0 0-2 2 2.006 2.006 0 0 0 2 2 2.008 2.008 0 0 0 1.889-1.336l.03-.085h2.345a3.429 3.429 0 0 0 3.425-3.425v-.839h.839a2.006 2.006 0 0 0 2-2v-5.78a10.543 10.543 0 0 0-10.525-10.52zm-6.524 11.952a.84.84 0 0 1 .839-.839.84.84 0 0 1 .839.839v5.78a.84.84 0 0 1-.839.839.84.84 0 0 1-.839-.839zm-2 .583h.838v4.615h-.838a.839.839 0 0 1-.838-.839v-2.937a.839.839 0 0 1 .834-.839zm8.528 10.3a.84.84 0 0 1-.839-.839.84.84 0 0 1 .839-.839.84.84 0 0 1 .838.839.84.84 0 0 1-.842.839zm6.523-5.1a.84.84 0 0 1-.839.839.839.839 0 0 1-.838-.839v-5.78a.839.839 0 0 1 .838-.839.84.84 0 0 1 .839.839zm2.843-1.421a.84.84 0 0 1-.839.839h-.839v-4.615h.839a.84.84 0 0 1 .839.839z" transform="translate(-72 -1064.693) translate(73 1064.768) translate(-4206.812 298.125)"/>
        </g>
    </g>
</svg>
