<svg xmlns="http://www.w3.org/2000/svg" width="40" height="40" viewBox="0 0 40 40">
    <defs>
        <clipPath id="clip-path">
            <path id="사각형_1362" d="M0 0H40V40H0z" class="cls-1" transform="translate(1054 906)"/>
        </clipPath>
        <style>
            .cls-1{fill:#ff3358}
        </style>
    </defs>
    <g id="마스크_그룹_127" clip-path="url(#clip-path)" transform="translate(-1054 -906)">
        <g id="logout" transform="translate(1053.763 905.763)">
            <path id="패스_565" d="M39.936 16.979l-6.324-6.324a1.028 1.028 0 1 0-1.454 1.454l4.572 4.571H23.187a1.028 1.028 0 0 0 0 2.055h13.54L32.158 23.3a1.03 1.03 0 0 0 0 1.454 1.025 1.025 0 0 0 1.453 0l6.314-6.314a1.055 1.055 0 0 0 .08-.088l.011-.015c.015-.02.032-.041.047-.064l.016-.027.018-.03.016-.027.025-.052.011-.023.006-.013.026-.072.006-.017a.972.972 0 0 0 .025-.1v-.011a1.024 1.024 0 0 0-.276-.922z" class="cls-1"/>
            <path id="패스_566" d="M25.717 22.161a1.029 1.029 0 0 0-1.028 1.028v7.589a2.348 2.348 0 0 1-2.345 2.345h-5.718V6.747a3.173 3.173 0 0 0-2.138-2.983l-4.411-1.47h12.268a2.348 2.348 0 0 1 2.345 2.345v7.589a1.028 1.028 0 1 0 2.055 0V4.639a4.405 4.405 0 0 0-4.4-4.4H3.373A3.139 3.139 0 0 0 .237 3.374v30.355a3.173 3.173 0 0 0 2.138 2.983l10.146 3.38a3.231 3.231 0 0 0 .971.145 3.139 3.139 0 0 0 3.134-3.137v-1.922h5.718a4.405 4.405 0 0 0 4.4-4.4v-7.589a1.029 1.029 0 0 0-1.027-1.028zM14.571 37.1a1.082 1.082 0 0 1-1.08 1.08 1.156 1.156 0 0 1-.348-.049L3.04 34.766a1.118 1.118 0 0 1-.747-1.038V3.374a1.082 1.082 0 0 1 1.08-1.08 1.152 1.152 0 0 1 .348.049l10.1 3.367a1.118 1.118 0 0 1 .747 1.038V37.1z" class="cls-1"/>
        </g>
    </g>
</svg>
