<svg xmlns="http://www.w3.org/2000/svg" width="24.127" height="24.249" viewBox="0 0 24.127 24.249">
    <defs>
        <style>
            .cls-2{fill:#939393;stroke:#939393;stroke-width:.25px}
        </style>
    </defs>
    <g id="그룹_1176" transform="translate(-72 -1463.876)">
        <path id="사각형_621" fill="rgba(124,208,223,0)" d="M0 0H24V24H0z" transform="translate(72 1464)"/>
        <g id="그룹_1159" transform="translate(73 1464.001)">
            <path id="패스_218" d="M4721.76-227.963a.583.583 0 0 0-.415-.172.583.583 0 0 0-.415.172.583.583 0 0 0-.172.415.583.583 0 0 0 .172.415l2.8 2.8h-8.223a.587.587 0 0 0-.587.587.587.587 0 0 0 .587.587h8.221l-2.8 2.8a.587.587 0 0 0 0 .83.58.58 0 0 0 .415.172.581.581 0 0 0 .415-.173l3.8-3.8a.631.631 0 0 0 .047-.051l.005-.008c.009-.011.019-.024.028-.038l.02-.032c0-.005.007-.011.009-.016l.012-.024.009-.019c.009-.021.013-.034.018-.048v-.011a.449.449 0 0 0 .014-.054v-.009a.584.584 0 0 0-.161-.527z" class="cls-2" transform="translate(-4702.736 234.22)"/>
            <path id="패스_219" d="M4578.824-284.8a.587.587 0 0 0-.586.587v4.565a1.444 1.444 0 0 1-1.442 1.442h-3.472v-15.9a1.878 1.878 0 0 0-1.265-1.765l-2.838-.945h7.574a1.444 1.444 0 0 1 1.442 1.442v4.565a.588.588 0 0 0 .587.587.588.588 0 0 0 .587-.587v-4.565a2.619 2.619 0 0 0-2.616-2.616h-11.413a1.857 1.857 0 0 0-1.855 1.855v18.261a1.877 1.877 0 0 0 1.265 1.765l6.1 2.033a1.916 1.916 0 0 0 .574.085 1.857 1.857 0 0 0 1.854-1.855v-1.189h3.472a2.618 2.618 0 0 0 2.615-2.616v-4.565a.587.587 0 0 0-.583-.584zm-6.673 8.956a.682.682 0 0 1-.682.682.72.72 0 0 1-.219-.031l-6.078-2.025a.705.705 0 0 1-.472-.654v-18.261a.682.682 0 0 1 .682-.682.72.72 0 0 1 .219.031l6.078 2.025a.705.705 0 0 1 .472.654v18.261z" class="cls-2" transform="translate(-4563.528 297.989)"/>
        </g>
    </g>
</svg>
