<svg xmlns="http://www.w3.org/2000/svg" xmlns:xlink="http://www.w3.org/1999/xlink" width="24" height="24" viewBox="0 0 24 24"><defs><style>.a,.c,.d,.e{fill:#939393;}.a{stroke:#000;}.b{clip-path:url(#a);}.c,.d{stroke:#fff;}.c{stroke-width:0.25px;}.d{stroke-linecap:round;stroke-width:0.3px;}</style><clipPath id="a"><rect class="a" width="24" height="24"/></clipPath></defs><g class="b"><g transform="translate(0 4.278)"><path class="c" d="M27.219,5.42H13.109a.708.708,0,0,0-.5.205l-.908.91-.908-.91a.708.708,0,0,0-.5-.205H6.031A1.409,1.409,0,0,0,4.625,6.826V19.482a1.409,1.409,0,0,0,1.406,1.406H10.3a.708.708,0,0,0,.5-.205l.908-.91.908.908a.7.7,0,0,0,.5.207H27.219a1.409,1.409,0,0,0,1.406-1.406V6.826A1.409,1.409,0,0,0,27.219,5.42Zm0,14.063H13.4l-.994-.994V16.67H11v1.818l-.994.994H6.031V6.826h3.975L11,7.82V9.639h1.406V7.82l.994-.994H27.219V19.482Z" transform="translate(-4.625 -5.42)"/><g transform="translate(10.594 2.813)"><path class="d" d="M23.066,9.756a2.109,2.109,0,1,0,2.109,2.109A2.112,2.112,0,0,0,23.066,9.756Zm0,2.813a.7.7,0,1,1,.7-.7A.7.7,0,0,1,23.066,12.568Z" transform="translate(-20.957 -9.756)"/></g><g transform="translate(16.313 8.438)"><path class="d" d="M31.883,18.428a2.109,2.109,0,1,0,2.109,2.109A2.112,2.112,0,0,0,31.883,18.428Zm0,2.813a.7.7,0,1,1,.7-.7A.7.7,0,0,1,31.883,21.24Z" transform="translate(-29.773 -18.428)"/></g><g transform="translate(11.342 2.813)"><path class="d" d="M30.3,9.919a.7.7,0,0,0-.991.09l-7.031,8.437a.7.7,0,0,0,1.083.9l7.031-8.438A.7.7,0,0,0,30.3,9.919Z" transform="translate(-22.111 -9.756)"/></g><g transform="translate(6.375 8.438)"><rect class="e" width="1.406" height="1.406"/></g><g transform="translate(6.375 5.625)"><rect class="e" width="1.406" height="1.406"/></g></g></g></svg>