<svg xmlns="http://www.w3.org/2000/svg" width="37" height="37" viewBox="0 0 37 37">
    <defs>
        <clipPath id="clip-path">
            <path id="사각형_1367" fill="#58949f" stroke="#707070" d="M0 0H37V37H0z" transform="translate(0 -.073)"/>
        </clipPath>
        <style>
            .cls-3{fill:#ff3358}
        </style>
    </defs>
    <g id="마스크_그룹_130" clip-path="url(#clip-path)" transform="translate(0 .073)">
        <g id="coupon" transform="translate(0 7.031)">
            <g id="그룹_1968">
                <g id="그룹_1967">
                    <path id="패스_572" d="M39.457 5.42H17.705a1.092 1.092 0 0 0-.767.317l-1.4 1.4-1.4-1.4a1.092 1.092 0 0 0-.767-.317H6.793a2.172 2.172 0 0 0-2.168 2.168V27.1a2.172 2.172 0 0 0 2.168 2.168h6.576a1.092 1.092 0 0 0 .767-.317l1.4-1.4 1.4 1.4a1.085 1.085 0 0 0 .767.319h21.754a2.172 2.172 0 0 0 2.168-2.17V7.588a2.172 2.172 0 0 0-2.168-2.168zm0 22.764V27.1h-21.3l-1.533-1.533v-2.8h-2.171v2.8L12.92 27.1H6.793V7.588h6.127l1.533 1.533v2.8h2.168v-2.8l1.533-1.533h21.3V27.1z" transform="translate(-4.625 -5.42)"/>
                </g>
            </g>
            <g id="그룹_1970" transform="translate(16.332 4.336)">
                <g id="그룹_1969">
                    <path id="패스_573" d="M24.209 9.756a3.252 3.252 0 1 0 3.252 3.252 3.256 3.256 0 0 0-3.252-3.252zm0 4.336a1.084 1.084 0 1 1 1.084-1.084 1.084 1.084 0 0 1-1.084 1.084z" class="cls-3" transform="translate(-20.957 -9.756)"/>
                </g>
            </g>
            <g id="그룹_1972" transform="translate(25.148 13.008)">
                <g id="그룹_1971">
                    <path id="패스_574" d="M33.025 18.428a3.252 3.252 0 1 0 3.252 3.252 3.256 3.256 0 0 0-3.252-3.252zm0 4.336a1.084 1.084 0 1 1 1.084-1.084 1.084 1.084 0 0 1-1.084 1.084z" class="cls-3" transform="translate(-29.773 -18.428)"/>
                </g>
            </g>
            <g id="그룹_1974" transform="translate(17.486 4.336)">
                <g id="그룹_1973">
                    <path id="패스_575" d="M34.731 10.007a1.086 1.086 0 0 0-1.528.139l-10.84 13.008a1.085 1.085 0 0 0 1.669 1.388l10.84-13.008a1.085 1.085 0 0 0-.141-1.527z" class="cls-3" transform="translate(-22.111 -9.756)"/>
                </g>
            </g>
            <g id="그룹_1976" transform="translate(9.828 13.008)">
                <g id="그룹_1975">
                    <path id="사각형_1365" d="M0 0H2.168V2.168H0z"/>
                </g>
            </g>
            <g id="그룹_1978" transform="translate(9.828 8.672)">
                <g id="그룹_1977">
                    <path id="사각형_1366" d="M0 0H2.168V2.168H0z"/>
                </g>
            </g>
        </g>
    </g>
</svg>
