<svg xmlns="http://www.w3.org/2000/svg" xmlns:xlink="http://www.w3.org/1999/xlink" width="20" height="20" viewBox="0 0 20 20"><defs><style>.a,.c,.d,.e{fill:#939393;}.b{clip-path:url(#a);}.c,.d,.e{stroke:#fff;}.c{stroke-width:0.4px;}.d{stroke-width:0.5px;}.e{stroke-width:0.2px;font-size:12px;font-family:ProximaNova-Bold, Proxima Nova;font-weight:700;}</style><clipPath id="a"><rect class="a" width="20" height="20" transform="translate(-0.001)"/></clipPath></defs><g class="b" transform="translate(0.001)"><g transform="translate(0.133 0.395)"><g transform="translate(0)"><path class="c" d="M3.04,15.872a.81.81,0,0,0,.174-1.133,8.245,8.245,0,1,1,14.9-4.871,8.18,8.18,0,0,1-1.592,4.871.81.81,0,0,0,1.307.959,9.866,9.866,0,1,0-15.919,0,.81.81,0,0,0,1.133.174Z" transform="translate(0 0)"/><path class="d" d="M18.922,31.207H.813a.81.81,0,1,0,0,1.621h18.11a.81.81,0,0,0,0-1.621Z" transform="translate(-0.001 -13.622)"/><text class="e" transform="translate(6.183 13.208)"><tspan x="0" y="0">P</tspan></text></g></g></g></svg>