<svg xmlns="http://www.w3.org/2000/svg" width="30" height="30" viewBox="0 0 30 30">
    <defs>
        <clipPath id="7rqbljtqpa">
            <path fill="#58949f" d="M0 0H30V30H0z" transform="translate(.001 -.479)"/>
        </clipPath>
    </defs>
    <g clip-path="url(#7rqbljtqpa)" transform="translate(-.001 .479)">
        <g>
            <path d="M4.56 23.808a1.215 1.215 0 0 0 .261-1.7A12.368 12.368 0 1 1 27.167 14.8a12.27 12.27 0 0 1-2.388 7.307 1.216 1.216 0 0 0 1.96 1.438 14.8 14.8 0 1 0-23.878 0 1.215 1.215 0 0 0 1.7.261z" transform="translate(.201 -.133)"/>
            <path d="M28.382 31.207H1.218a1.215 1.215 0 1 0 0 2.431h27.164a1.215 1.215 0 0 0 0-2.431z" transform="translate(.201 -.133) translate(0 -4.039)"/>
            <text fill="#ff3358" font-family="ProximaNova-Bold, Proxima Nova" font-size="21px" font-weight="700" transform="translate(.201 -.133) translate(8.486 21.522)">
                <tspan x="0" y="0">P</tspan>
            </text>
        </g>
    </g>
</svg>
