<?xml version="1.0" encoding="utf-8"?>
<!-- Generator: Adobe Illustrator 23.0.3, SVG Export Plug-In . SVG Version: 6.00 Build 0)  -->
<svg version="1.1" id="Layer_1" xmlns="http://www.w3.org/2000/svg" xmlns:xlink="http://www.w3.org/1999/xlink" x="0px" y="0px"
	 viewBox="0 0 56 56" style="enable-background:new 0 0 56 56;" xml:space="preserve">
<style type="text/css">
	.st0{fill:#FAFAFA;}
	.st1{enable-background:new    ;}
	.st2{fill:#D1D1D1;}
</style>
<g id="profile-thumbnail" transform="translate(-4745 12269)">
	<g id="그룹_9545">
		<rect id="사각형_3523" x="4745" y="-12269" class="st0" width="56" height="56"/>
		<g class="st1">
			<path class="st2" d="M4763.3-12236v-7.5l-3,7.5h-1l-3-7.5v7.5h-2.3v-10.7h3.2l2.6,6.5l2.6-6.5h3.2v10.7H4763.3z"/>
			<path class="st2" d="M4767.5-12245.8c0-0.7,0.6-1.2,1.2-1.2c0.7,0,1.2,0.5,1.2,1.2c0,0.7-0.5,1.2-1.2,1.2
				C4768-12244.6,4767.5-12245.1,4767.5-12245.8z M4767.7-12236v-7.7h2v7.7H4767.7z"/>
			<path class="st2" d="M4778.7-12236l-2.7-3.9l-2.7,3.9h-2.7l3.9-5.5l-3.6-5.2h2.7l2.4,3.7l2.4-3.7h2.7l-3.6,5.2l3.9,5.5H4778.7z"
				/>
			<path class="st2" d="M4782.5-12236v-10.7h4.2c3.3,0,5.7,2.1,5.7,5.3c0,3.2-2.3,5.3-5.7,5.3H4782.5z M4790-12241.3
				c0-1.9-1.2-3.3-3.3-3.3h-1.9v6.7h1.9C4788.8-12238,4790-12239.5,4790-12241.3z"/>
		</g>
	</g>
</g>
</svg>
