<svg xmlns="http://www.w3.org/2000/svg" width="72" height="72.127" viewBox="0 0 72 72.127">
    <defs>
        <style>
            .cls-2{fill:#dfdfdf}
        </style>
    </defs>
    <g id="그룹_1986" transform="translate(.001 -.015)">
        <path id="사각형_613" fill="rgba(124,208,223,0)" d="M0 0H72V72H0z" transform="translate(-.001 .141)"/>
        <g id="그룹_1183" transform="translate(3.766 .015)">
            <path id="패스_236" d="M3007.406-201.091h-30a1.635 1.635 0 0 0-1.633 1.634 1.636 1.636 0 0 0 1.633 1.634h30a1.636 1.636 0 0 0 1.634-1.634 1.636 1.636 0 0 0-1.634-1.634z" class="cls-2" transform="translate(-2964.141 230.215)"/>
            <path id="패스_237" d="M2997.26-140.24a1.636 1.636 0 0 0-1.633-1.634h-18.219a1.636 1.636 0 0 0-1.633 1.634 1.635 1.635 0 0 0 1.633 1.634h18.219a1.635 1.635 0 0 0 1.633-1.634z" class="cls-2" transform="translate(-2964.141 182.648)"/>
            <path id="패스_238" d="M2936.75-280.4h-9.741a7.112 7.112 0 0 1-7.1-7.1v-51.258a7.112 7.112 0 0 1 7.1-7.1h35.806a7.112 7.112 0 0 1 7.1 7.1v17.911a1.636 1.636 0 0 0 1.634 1.634 1.636 1.636 0 0 0 1.635-1.634v-17.911a10.383 10.383 0 0 0-10.373-10.371h-35.806a10.383 10.383 0 0 0-10.371 10.371v51.258a10.382 10.382 0 0 0 10.371 10.371h9.741a1.636 1.636 0 0 0 1.634-1.634 1.635 1.635 0 0 0-1.63-1.637z" class="cls-2" transform="translate(-2916.639 349.135)"/>
            <path id="패스_239" d="M3107.683-145.6a7.407 7.407 0 0 0-5.274-2.181 7.4 7.4 0 0 0-5.271 2.179l-15.992 15.955a1.64 1.64 0 0 0-.409.682l-3.482 11.464a1.632 1.632 0 0 0 .394 1.616 1.66 1.66 0 0 0 1.184.49 1.59 1.59 0 0 0 .422-.057l11.754-3.256a1.639 1.639 0 0 0 .718-.418l15.956-15.926a7.467 7.467 0 0 0 0-10.548zm-17.96 23.858l-8.477 2.349 2.5-8.229 11.92-11.894 5.928 5.928zm15.652-15.621l-1.47 1.466-5.927-5.927 1.469-1.465a4.158 4.158 0 0 1 2.962-1.225 4.166 4.166 0 0 1 2.964 1.226 4.162 4.162 0 0 1 1.226 2.963 4.152 4.152 0 0 1-1.224 2.965z" class="cls-2" transform="translate(-3045.602 187.389)"/>
            <path id="패스_240" d="M3007.406-260.309h-30a1.635 1.635 0 0 0-1.633 1.634 1.635 1.635 0 0 0 1.633 1.634h30a1.636 1.636 0 0 0 1.634-1.634 1.636 1.636 0 0 0-1.634-1.634z" class="cls-2" transform="translate(-2964.141 277.783)"/>
        </g>
    </g>
</svg>
