<svg xmlns="http://www.w3.org/2000/svg" width="24" height="24" viewBox="0 0 24 24">
    <defs>
        <style>
            .cls-3{fill:#939393;stroke:transparent}
        </style>
    </defs>
    <g id="그룹_1561" transform="translate(.486)">
        <path id="사각형_614" fill="rgba(124,208,223,0)" d="M0 0H24V24H0z" transform="translate(-.486)"/>
        <g id="그룹_1182" transform="translate(1.014 1.003)">
            <path id="패스_233" fill="#939393" stroke="#939393" stroke-width="0.1px" d="M2455.854-350.891l-9.865-4.749a.5.5 0 0 0-.423 0l-9.864 4.749a.487.487 0 0 0-.275.437v11.533a.487.487 0 0 0 .275.437l9.864 4.749a.492.492 0 0 0 .211.048.485.485 0 0 0 .211-.048l9.865-4.749a.487.487 0 0 0 .274-.437v-11.533a.488.488 0 0 0-.273-.437zm-9.59 5.49l2.106-1.014a.48.48 0 0 0 .248-.277.479.479 0 0 0-.021-.371.49.49 0 0 0-.438-.274.483.483 0 0 0-.211.048l-2.17 1.045-.81-.39a.482.482 0 0 0-.211-.048.49.49 0 0 0-.438.274.482.482 0 0 0-.021.371.483.483 0 0 0 .248.277l.746.359v10.456l-8.892-4.281v-10.456l6.786 3.267a.489.489 0 0 0 .211.048.49.49 0 0 0 .438-.274.485.485 0 0 0-.227-.647l-6.577-3.166 2.775-1.336 9.4 4.524v3.707a.482.482 0 0 0 .228.411.5.5 0 0 0 .47.026l2.381-1.146a.487.487 0 0 0 .275-.437v-3.724l2.6-1.251v10.456l-8.892 4.281zm6.007-3.969l-8.746-4.21 2.253-1.085 8.746 4.21zm-2.1 5.037v-2.952l1.409-.678v2.952zm-.5-3.786l-8.729-4.2 1.478-.715 8.733 4.2z" transform="translate(-2435.428 355.687)"/>
            <path id="패스_234" d="M2461.831-96.353l-1.448-.7a.484.484 0 0 0-.211-.048.489.489 0 0 0-.438.274.48.48 0 0 0-.021.371.483.483 0 0 0 .248.277l1.448.7a.482.482 0 0 0 .212.048.489.489 0 0 0 .438-.274.48.48 0 0 0 .021-.371.482.482 0 0 0-.249-.277z" class="cls-3" transform="translate(-2458.327 111.538)"/>
            <path id="패스_235" d="M2463.2-122.669l-2.778-1.337a.484.484 0 0 0-.211-.048.49.49 0 0 0-.438.274.485.485 0 0 0 .227.647l2.778 1.337a.484.484 0 0 0 .211.048.489.489 0 0 0 .438-.274.479.479 0 0 0 .021-.371.482.482 0 0 0-.248-.276z" class="cls-3" transform="translate(-2458.365 136.99)"/>
        </g>
    </g>
</svg>
