<svg xmlns="http://www.w3.org/2000/svg" width="24" height="24" viewBox="0 0 24 24">
    <defs>
        <style>
            .cls-2{fill:#939393}
        </style>
    </defs>
    <g id="그룹_1178" transform="translate(-72 -1264)">
        <path id="사각형_619" fill="rgba(124,208,223,0)" d="M0 0H24V24H0z" transform="translate(72 1264)"/>
        <g id="Privacy" transform="translate(75 1264)">
            <path id="패스_230" d="M16.82 31.713a.7.7 0 0 0 .7-.7V28.1a.7.7 0 0 0-1.406 0v2.913a.7.7 0 0 0 .706.7zm0 0" class="cls-2" transform="translate(-8.058 -13.697)"/>
            <path id="패스_231" d="M16.82 7.712h-3.328V4.287A4.53 4.53 0 0 0 8.762 0a4.53 4.53 0 0 0-4.731 4.287v3.425H.7a.7.7 0 0 0-.7.7v8.992A6.6 6.6 0 0 0 6.592 24h4.339a6.6 6.6 0 0 0 6.592-6.592V8.416a.7.7 0 0 0-.7-.7zM5.437 4.287a3.13 3.13 0 0 1 3.325-2.881 3.13 3.13 0 0 1 3.324 2.881v3.425H5.437zm10.68 13.12a5.192 5.192 0 0 1-5.186 5.186H6.592a5.192 5.192 0 0 1-5.186-5.186V9.119h14.711zm0 0" class="cls-2"/>
        </g>
    </g>
</svg>
