<svg xmlns="http://www.w3.org/2000/svg" width="40" height="40" viewBox="0 0 40 40">
    <defs>
        <clipPath id="clip-path">
            <path id="사각형_1360" d="M0 0H40V40H0z" class="cls-1" transform="translate(1054 755)"/>
        </clipPath>
        <style>
            .cls-1{fill:#ff3358}
        </style>
    </defs>
    <g id="마스크_그룹_125" clip-path="url(#clip-path)" transform="translate(-1054 -755)">
        <g id="Privacy" transform="translate(1059.397 755)">
            <path id="패스_559" d="M14.6 30.026a1.172 1.172 0 0 0 1.172-1.172V24a1.172 1.172 0 1 0-2.344 0v4.854a1.172 1.172 0 0 0 1.172 1.172zm0 0" class="cls-1"/>
            <path id="패스_560" d="M28.033 12.854h-5.546V7.145C22.487 3.205 18.95 0 14.6 0S6.718 3.205 6.718 7.145v5.709H1.172A1.172 1.172 0 0 0 0 14.026v14.987A11 11 0 0 0 10.987 40h7.231a11 11 0 0 0 10.988-10.987V14.026a1.172 1.172 0 0 0-1.172-1.172zM9.062 7.145c0-2.648 2.485-4.8 5.54-4.8s5.541 2.154 5.541 4.8v5.709H9.062zm17.8 21.867a8.653 8.653 0 0 1-8.644 8.644h-7.231a8.653 8.653 0 0 1-8.644-8.644V15.2h24.518zm0 0" class="cls-1"/>
        </g>
    </g>
</svg>
