<svg xmlns="http://www.w3.org/2000/svg" width="25.429" height="22.539" viewBox="0 0 25.429 22.539">
    <g>
        <path fill="none" stroke="#fff" d="M23.665 5.077h-4.2l-1.144-2.308A.766.766 0 0 0 17.558 2H6.871a.766.766 0 0 0-.763.769L4.962 5.077H.763A.767.767 0 0 0 0 5.846V22.77a.766.766 0 0 0 .763.769h22.9a.766.766 0 0 0 .763-.769V5.846a.766.766 0 0 0-.761-.769z" transform="translate(-29.5 -186.5) translate(30 185)"/>
        <path fill="#fff" d="M17528.283 20080.563a6.282 6.282 0 1 1 6.279-6.279 6.291 6.291 0 0 1-6.279 6.279zm-4.439-6.715v1h4v4h1v-4h4v-1h-4v-4h-1v4h-4z" transform="translate(-29.5 -186.5) translate(-17486.344 -19875.348)"/>
    </g>
</svg>
