<svg xmlns="http://www.w3.org/2000/svg" width="46" height="46" viewBox="0 0 46 46">
    <defs>
        <clipPath id="clip-path">
            <path id="사각형_1358" d="M0 0H46V46H0z" class="cls-1" transform="translate(826.333 593.333)"/>
        </clipPath>
        <style>
            .cls-1{fill:#ff3358}
        </style>
    </defs>
    <g id="마스크_그룹_122" clip-path="url(#clip-path)" transform="translate(-826.333 -593.333)">
        <g id="qna" transform="translate(826 598.103)">
            <g id="그룹_1949" transform="translate(32.037 10.573)">
                <g id="그룹_1948">
                    <path id="패스_551" d="M29.018 30.508a.911.911 0 1 0 .267.644.918.918 0 0 0-.267-.644z" class="cls-1" transform="translate(-27.463 -30.241)"/>
                </g>
            </g>
            <g id="그룹_1951" transform="translate(16.951 10.573)">
                <g id="그룹_1950">
                    <path id="패스_552" d="M39.689 30.241h-5.811a.912.912 0 1 0 0 1.823h5.811a2.738 2.738 0 0 1 2.735 2.736v13.124a2.738 2.738 0 0 1-2.734 2.734h-1.277a.911.911 0 0 0-.644.267l-3 3-3-3a.911.911 0 0 0-.644-.267H19.09a2.738 2.738 0 0 1-2.734-2.734v-3.282a.912.912 0 0 0-1.823 0v3.281a4.563 4.563 0 0 0 4.557 4.557h11.654l3.379 3.379a.911.911 0 0 0 1.289 0l3.379-3.379h.9a4.563 4.563 0 0 0 4.557-4.557V34.8a4.562 4.562 0 0 0-4.559-4.559z" class="cls-1" transform="translate(-14.532 -30.241)"/>
                </g>
            </g>
            <g id="그룹_1953">
                <g id="그룹_1952">
                    <path id="패스_553" d="M25.159 21.178h-20.6A4.563 4.563 0 0 0 0 25.735v13.126a4.563 4.563 0 0 0 4.557 4.557h1.917L9.853 46.8a.911.911 0 0 0 1.289 0l3.379-3.379h10.638a4.563 4.563 0 0 0 4.557-4.557V25.735a4.563 4.563 0 0 0-4.557-4.557zm2.734 17.683a2.738 2.738 0 0 1-2.734 2.739H14.143a.911.911 0 0 0-.644.267l-3 3-3-3a.912.912 0 0 0-.645-.267H4.559a2.738 2.738 0 0 1-2.734-2.735v-13.13A2.738 2.738 0 0 1 4.559 23h20.6a2.738 2.738 0 0 1 2.734 2.734z" class="cls-1" transform="translate(-.002 -21.178)"/>
                </g>
            </g>
            <g id="그룹_1955" transform="translate(28.804 16.954)">
                <g id="그룹_1954">
                    <path id="패스_554" d="M32.908 43.923l-3.232-7.657a.912.912 0 0 0-1.68 0l-3.232 7.657a.911.911 0 1 0 1.679.709l.457-1.082h3.871l.457 1.082a.912.912 0 1 0 1.68-.709zm-5.238-2.2l1.166-2.762L30 41.727z" class="cls-1" transform="translate(-24.692 -35.71)"/>
                </g>
            </g>
            <g id="그룹_1957" transform="translate(10.254 6.198)">
                <g id="그룹_1956">
                    <path id="패스_555" d="M17.626 34.6l-.865-.637a4.168 4.168 0 0 0 .416-1.819v-1.461a4.193 4.193 0 0 0-8.386 0v1.458a4.19 4.19 0 0 0 6.838 3.25l.916.674a.912.912 0 0 0 1.081-1.465zm-2.272-2.456a2.365 2.365 0 0 1-.107.7l-.963-.709A.912.912 0 0 0 13.2 33.6l.87.641a2.368 2.368 0 0 1-3.459-2.1v-1.458a2.37 2.37 0 1 1 4.74 0v1.458z" class="cls-1" transform="translate(-8.791 -26.49)"/>
                </g>
            </g>
        </g>
    </g>
</svg>
