<svg xmlns="http://www.w3.org/2000/svg" width="28.1" height="28" viewBox="0 0 28.1 28">
    <defs>
        <style>
            .cls-2{fill:#939393;stroke:#939393;stroke-width:.1px}
        </style>
    </defs>
    <g id="그룹_1951" transform="translate(-71.95 -965.18)">
        <path id="사각형_616" fill="rgba(124,208,223,0)" d="M0 0H27.814V28H0z" transform="translate(72.093 965.18)"/>
        <g id="그룹_1170" transform="translate(72 968.023)">
            <g id="그룹_1161" transform="translate(19.217 6.386)">
                <g id="그룹_1160">
                    <path id="패스_220" d="M4011.212-185.09a.554.554 0 0 0-.389-.161.555.555 0 0 0-.39.161.555.555 0 0 0-.161.389.556.556 0 0 0 .161.389.557.557 0 0 0 .39.161.555.555 0 0 0 .389-.161.557.557 0 0 0 .162-.389.555.555 0 0 0-.162-.389z" class="cls-2" transform="translate(-4010.272 185.251)"/>
                </g>
            </g>
            <g id="그룹_1163" transform="translate(10.052 6.386)">
                <g id="그룹_1162">
                    <path id="패스_221" d="M3910.083-185.25h-3.509a.551.551 0 0 0-.551.551.551.551 0 0 0 .551.551h3.509a1.654 1.654 0 0 1 1.652 1.652v7.928a1.654 1.654 0 0 1-1.652 1.652h-.771a.55.55 0 0 0-.389.161l-1.813 1.813-1.813-1.813a.55.55 0 0 0-.389-.161h-7.267a1.654 1.654 0 0 1-1.652-1.652v-1.982a.55.55 0 0 0-.55-.551.55.55 0 0 0-.55.551v1.982a2.756 2.756 0 0 0 2.753 2.753h7.039l2.041 2.041a.55.55 0 0 0 .39.161.546.546 0 0 0 .389-.161l2.042-2.041h.542a2.756 2.756 0 0 0 2.753-2.753v-7.932a2.756 2.756 0 0 0-2.755-2.75z" class="cls-2" transform="translate(-3894.888 185.25)"/>
                </g>
            </g>
            <g id="그룹_1165">
                <g id="그룹_1164">
                    <path id="패스_222" d="M3780.424-266.125h-12.443a2.755 2.755 0 0 0-2.752 2.753v7.928a2.755 2.755 0 0 0 2.752 2.753h1.156l2.041 2.041a.549.549 0 0 0 .389.161.549.549 0 0 0 .39-.161l2.041-2.041h6.426a2.756 2.756 0 0 0 2.753-2.753v-7.928a2.756 2.756 0 0 0-2.753-2.753zm1.652 10.681a1.654 1.654 0 0 1-1.652 1.652h-6.654a.549.549 0 0 0-.389.161l-1.813 1.813-1.813-1.813a.549.549 0 0 0-.389-.161h-1.384a1.654 1.654 0 0 1-1.652-1.652v-7.928a1.654 1.654 0 0 1 1.652-1.652h12.443a1.653 1.653 0 0 1 1.651 1.652v7.928z" class="cls-2" transform="translate(-3765.229 266.125)"/>
                </g>
            </g>
            <g id="그룹_1167" transform="translate(17.258 10.24)">
                <g id="그룹_1166">
                    <path id="패스_223" d="M3990.51-131.486l-1.952-4.625a.55.55 0 0 0-.507-.336.551.551 0 0 0-.508.336l-1.952 4.625a.55.55 0 0 0 .293.721.55.55 0 0 0 .721-.293l.276-.654h2.338l.276.654a.55.55 0 0 0 .507.337.549.549 0 0 0 .214-.044.55.55 0 0 0 .294-.721zm-3.164-1.326l.7-1.668.7 1.668z" class="cls-2" transform="translate(-3985.547 136.447)"/>
                </g>
            </g>
            <g id="그룹_1169" transform="translate(6.143 3.744)">
                <g id="그룹_1168">
                    <path id="패스_224" d="M3849-213.819l-.522-.385a2.52 2.52 0 0 0 .251-1.1v-.881a2.535 2.535 0 0 0-2.533-2.533 2.535 2.535 0 0 0-2.532 2.533v.881a2.535 2.535 0 0 0 2.532 2.532 2.522 2.522 0 0 0 1.6-.569l.553.407a.55.55 0 0 0 .327.107.551.551 0 0 0 .444-.224.551.551 0 0 0-.12-.768zm-1.372-1.484a1.424 1.424 0 0 1-.065.425l-.581-.428a.55.55 0 0 0-.77.117.55.55 0 0 0 .117.77l.525.387a1.419 1.419 0 0 1-.658.161 1.433 1.433 0 0 1-1.431-1.431v-.881a1.433 1.433 0 0 1 1.431-1.431 1.433 1.433 0 0 1 1.432 1.431z" class="cls-2" transform="translate(-3843.663 218.716)"/>
                </g>
            </g>
        </g>
    </g>
</svg>
