<svg xmlns="http://www.w3.org/2000/svg" width="24" height="24" viewBox="0 0 24 24">
    <defs>
        <style>
            .cls-2{fill:#939393;stroke:#939393;stroke-width:.35px}
        </style>
    </defs>
    <g id="그룹_1548">
        <path id="사각형_613" fill="rgba(124,208,223,0)" d="M0 0H24V24H0z"/>
        <g id="그룹_1183" transform="translate(2 1.008)">
            <path id="패스_236" d="M2985.52-201.091h-9.242a.5.5 0 0 0-.5.5.5.5 0 0 0 .5.5h9.242a.5.5 0 0 0 .5-.5.5.5 0 0 0-.5-.5z" class="cls-2" transform="translate(-2972.19 209.986)"/>
            <path id="패스_237" d="M2982.394-141.371a.5.5 0 0 0-.5-.5h-5.613a.5.5 0 0 0-.5.5.5.5 0 0 0 .5.5h5.613a.5.5 0 0 0 .5-.5z" class="cls-2" transform="translate(-2972.19 154.328)"/>
            <path id="패스_238" d="M2922.835-328.133h-3a2.182 2.182 0 0 1-2.188-2.171v-15.662a2.182 2.182 0 0 1 2.188-2.171h11.032a2.182 2.182 0 0 1 2.188 2.171v5.473a.5.5 0 0 0 .5.5.5.5 0 0 0 .5-.5v-5.473a3.186 3.186 0 0 0-3.2-3.169h-11.032a3.186 3.186 0 0 0-3.2 3.169v15.666a3.186 3.186 0 0 0 3.2 3.169h3a.5.5 0 0 0 .5-.5.5.5 0 0 0-.488-.502z" class="cls-2" transform="translate(-2916.639 349.135)"/>
            <path id="패스_239" d="M3086.582-147.105a2.283 2.283 0 0 0-1.625-.672 2.282 2.282 0 0 0-1.624.671l-4.927 4.916a.509.509 0 0 0-.126.21l-1.073 3.532a.5.5 0 0 0 .121.5.511.511 0 0 0 .365.151.485.485 0 0 0 .13-.017l3.622-1a.505.505 0 0 0 .221-.129l4.916-4.907a2.3 2.3 0 0 0 0-3.255zm-5.534 7.351l-2.612.724.77-2.535 3.672-3.665 1.827 1.826zm4.822-4.813l-.453.452-1.826-1.826.453-.452a1.281 1.281 0 0 1 .913-.377 1.282 1.282 0 0 1 .913.378 1.282 1.282 0 0 1 .378.913 1.281 1.281 0 0 1-.378.911z" class="cls-2" transform="translate(-3067.454 159.798)"/>
            <path id="패스_240" d="M2985.52-260.309h-9.242a.5.5 0 0 0-.5.5.5.5 0 0 0 .5.5h9.242a.5.5 0 0 0 .5-.5.5.5 0 0 0-.5-.5z" class="cls-2" transform="translate(-2972.19 265.646)"/>
        </g>
    </g>
</svg>
