<svg xmlns="http://www.w3.org/2000/svg" width="40" height="40" viewBox="0 0 40 40">
    <defs>
        <clipPath id="clip-path">
            <path id="사각형_1359" d="M0 0H40V40H0z" class="cls-1" transform="translate(1054 593)"/>
        </clipPath>
        <style>
            .cls-1{fill:#ff3358}
        </style>
    </defs>
    <g id="마스크_그룹_123" clip-path="url(#clip-path)" transform="translate(-1054 -593)">
        <g id="book_2_" transform="translate(1054 593)">
            <g id="그룹_1958">
                <path id="패스_556" d="M32.621 0H10.107A5.067 5.067 0 0 0 5.05 5.033v29.933A5.067 5.067 0 0 0 10.107 40h22.529a2.253 2.253 0 0 0 2.314-2.281V2.329A2.333 2.333 0 0 0 32.621 0zm-9.99 1.9h5.6v8.933L26.24 7.671a.952.952 0 0 0-1.633 0l-1.976 3.152V1.9zM6.979 5.033A3.143 3.143 0 0 1 10.107 1.9h10.619v9.714a1.719 1.719 0 0 0 1.186 1.714 1.85 1.85 0 0 0 2.038-1l1.481-2.381 1.481 2.381a1.881 1.881 0 0 0 2.057 1 1.719 1.719 0 0 0 1.186-1.7v-9.7h2.481a.4.4 0 0 1 .4.4v27.619a2.321 2.321 0 0 0-.4-.033H10.107A5.029 5.029 0 0 0 6.979 31V5.033zm26.057 28.99l-21.957.024a.952.952 0 0 0 0 1.9l21.957-.024V37.7a.391.391 0 0 1-.4.4H10.107a3.131 3.131 0 1 1 0-6.262h22.529a.4.4 0 0 1 .4.4z" class="cls-1"/>
            </g>
        </g>
    </g>
</svg>
