<svg xmlns="http://www.w3.org/2000/svg" width="24" height="24" viewBox="0 0 24 24">
    <g>
        <path fill="rgba(124,208,223,0)" d="M0 0H24V24H0z" transform="translate(-72 -1364) translate(72 1364)"/>
        <g>
            <g>
                <path fill="#939393" d="M22.6 0H9.094A3.04 3.04 0 0 0 6.06 3.02v17.96A3.04 3.04 0 0 0 9.094 24h13.517A1.352 1.352 0 0 0 24 22.631V1.4A1.4 1.4 0 0 0 22.6 0zm-5.991 1.143h3.357V6.5l-1.192-1.9a.571.571 0 0 0-.98 0l-1.185 1.894zM7.217 3.02a1.886 1.886 0 0 1 1.877-1.877h6.371v5.828A1.031 1.031 0 0 0 16.177 8a1.11 1.11 0 0 0 1.223-.6l.889-1.429.888 1.429a1.129 1.129 0 0 0 1.234.6 1.031 1.031 0 0 0 .711-1.023v-5.82h1.489a.243.243 0 0 1 .24.24v16.571a1.393 1.393 0 0 0-.24-.02H9.094a3.017 3.017 0 0 0-1.877.654V3.02zm15.634 17.394l-13.174.014a.571.571 0 1 0 0 1.143l13.174-.014v1.063a.234.234 0 0 1-.24.24H9.094a1.879 1.879 0 1 1 0-3.757h13.517a.243.243 0 0 1 .24.24v1.071z" transform="translate(-72 -1364) translate(74.999 1364) translate(-6.06)"/>
            </g>
        </g>
    </g>
</svg>
