<svg xmlns="http://www.w3.org/2000/svg" id="truck" width="316.598" height="240.004" viewBox="0 0 316.598 240.004">
    <defs>
        <style>
            .cls-1{fill:#fff}
        </style>
    </defs>
    <g id="그룹_1243">
        <path id="패스_299" d="M95.319 376A15.319 15.319 0 1 1 80 391.319 15.319 15.319 0 0 1 95.319 376zm0 20.426a5.106 5.106 0 1 0-5.106-5.106 5.106 5.106 0 0 0 5.106 5.106z" class="cls-1" transform="translate(160.002 -187.063)"/>
        <path id="패스_300" d="M399.319 376A15.319 15.319 0 1 1 384 391.319 15.319 15.319 0 0 1 399.319 376zm0 20.426a5.106 5.106 0 1 0-5.106-5.106 5.107 5.107 0 0 0 5.106 5.106z" class="cls-1" transform="translate(-338.042 -187.063)"/>
        <path id="패스_301" d="M8.811 199.79l45.957-71.49a5.107 5.107 0 0 1 4.3-2.343h61.277V97.872A17.892 17.892 0 0 1 138.214 80h168.511A17.892 17.892 0 0 1 324.6 97.872v186.384a5.107 5.107 0 0 1-5.106 5.106H298.7a35.741 35.741 0 0 1-70.749 0H104.652a35.741 35.741 0 0 1-70.749 0h-20.8A5.107 5.107 0 0 1 8 284.256v-81.7a5.113 5.113 0 0 1 .811-2.766zm254.51 110a25.532 25.532 0 1 0-25.532-25.532 25.532 25.532 0 0 0 25.532 25.53zm-132.767-30.64h97.392a35.741 35.741 0 0 1 70.749 0h15.689v-51.064h-183.83zm0-61.277h183.831v-120a7.666 7.666 0 0 0-7.66-7.66H138.214a7.666 7.666 0 0 0-7.66 7.66zM52 151.49l-29.542 45.957h72.351V151.49zm17.272 158.3a25.532 25.532 0 1 0-25.532-25.532 25.532 25.532 0 0 0 25.537 25.53zM18.213 238.3h10.213a5.106 5.106 0 0 0 0-10.213H18.213zm0-20.426h10.213a15.319 15.319 0 0 1 0 30.638H18.213v30.638H33.9a35.741 35.741 0 0 1 70.749 0h15.689V136.17H61.854l-3.287 5.106h41.349a5.107 5.107 0 0 1 5.106 5.106v56.17a5.107 5.107 0 0 1-5.106 5.106h-81.7z" class="cls-1" transform="translate(-8 -80)"/>
        <path id="패스_302" d="M357.106 296h15.319a5.106 5.106 0 0 1 0 10.213h-15.319a5.106 5.106 0 0 1 0-10.213z" class="cls-1" transform="translate(-280.51 -158.127)"/>
        <path id="패스_303" d="M253.958 338.213h-40.852a5.106 5.106 0 0 1 0-10.213h40.851a5.106 5.106 0 0 1 0 10.213z" class="cls-1" transform="translate(-70.127 -169.701)"/>
        <path id="패스_304" d="M253.106 352h15.319a5.106 5.106 0 1 1 0 10.213h-15.319a5.106 5.106 0 1 1 0-10.213z" class="cls-1" transform="translate(-110.127 -178.382)"/>
    </g>
    <g id="그룹_1244" transform="rotate(180 145.5 62.35)">
        <path id="패스_305" d="M90.248 150.772q-2.586 0-3.565 1t-.98 3.767q.051 1.205.126 1.783a4 4 0 0 0 .527 1.381q.753 1.457 3.792 1.457t4.018-.98q.979-.979.979-3.792 0-2.913-1.055-3.716a6.6 6.6 0 0 0-3.842-.9zm0 16.023q-2.586 0-3.565.979t-.98 3.792q.051 1.207.126 1.783a4.011 4.011 0 0 0 .527 1.382q.753 1.457 3.792 1.456t4.018-.98q.979-.979.979-3.792 0-2.913-1.055-3.716a6.592 6.592 0 0 0-3.842-.904z" class="cls-1" transform="translate(-50.345 -145.568)"/>
        <path id="패스_306" d="M160.34 131.519l-9.292.05a18.036 18.036 0 0 0-12.807 5.248 17.107 17.107 0 0 0-5.525 12.908 18.036 18.036 0 0 0 5.4 13.134 17.691 17.691 0 0 0 13.083 5.474h9.192q3.064 0 3.817-1.255a6.671 6.671 0 0 0 .6-3.215v-27.924a14.436 14.436 0 0 0-.075-1.758 4.034 4.034 0 0 0-.477-1.306q-.701-1.356-3.916-1.356zm-15.821 25.238A8.8 8.8 0 0 1 141.6 150a9.076 9.076 0 0 1 2.839-6.806 9.279 9.279 0 0 1 6.655-2.737h4.821v18.985h-4.872a9.391 9.391 0 0 1-6.524-2.685z" class="cls-1" transform="translate(-132.716 -131.519)"/>
    </g>
</svg>
