<svg xmlns="http://www.w3.org/2000/svg" width="39" height="39" fill="none" viewBox="0 0 39 39">
    <path stroke="#C8C8C8" stroke-linecap="round" stroke-linejoin="round" d="M13.406 25.594l-6.094 6.093M23.513 4.518l-9.497 9.498s-4.227-2.114-8.745 1.53c-.133.108-.242.243-.32.395-.079.152-.124.32-.133.49-.01.171.017.342.079.502.06.16.155.306.276.427L21.61 33.797c.123.124.271.22.434.28.164.062.338.087.512.075.174-.012.343-.061.496-.144.154-.083.287-.198.392-.337 1.279-1.7 3.287-5.193 1.54-8.687l9.498-9.497c.229-.229.357-.539.357-.862 0-.323-.128-.633-.357-.862l-9.245-9.245c-.229-.228-.539-.357-.862-.357-.323 0-.633.129-.862.357v0z"/>
</svg>
