<svg xmlns="http://www.w3.org/2000/svg" width="15" height="13.299" viewBox="0 0 15 13.299">
    <g>
        <path fill="#ff3358" stroke="#ff3358" d="M12.89 1.2a3.787 3.787 0 0 0-2.8-1.2 3.551 3.551 0 0 0-2.2.75 4.469 4.469 0 0 0-.89.917A4.467 4.467 0 0 0 6.111.75a3.55 3.55 0 0 0-2.2-.75 3.787 3.787 0 0 0-2.8 1.2A4.29 4.29 0 0 0 0 4.155a5.111 5.111 0 0 0 1.389 3.368 29.459 29.459 0 0 0 3.476 3.222c.482.405 1.028.865 1.594 1.354a.83.83 0 0 0 1.082 0c.567-.49 1.113-.949 1.595-1.355a29.443 29.443 0 0 0 3.476-3.221A5.11 5.11 0 0 0 14 4.155 4.29 4.29 0 0 0 12.89 1.2zm0 0" transform="translate(.5 .5)"/>
    </g>
</svg>
